<svg width="24" height="24" viewBox="0 0 24 24" xmlns="http://www.w3.org/2000/svg" xmlns:xlink="http://www.w3.org/1999/xlink">
    <defs>
        <path d="M11 0a5 5 0 0 1 5 5v12a3 3 0 0 1-3 3H3a3 3 0 0 1-3-3V3a3 3 0 0 1 3-3zm-1 2H3a1 1 0 0 0-1 1v14a1 1 0 0 0 1 1h10a1 1 0 0 0 1-1V7h-1a3 3 0 0 1-2.995-2.824L10 4V2zm1 11a1 1 0 0 1 .117 1.993L11 15H6a1 1 0 0 1-.117-1.993L6 13h5zM9 9a1 1 0 0 1 .117 1.993L9 11H6a1 1 0 0 1-.117-1.993L6 9h3zm3-6.83V4a1 1 0 0 0 .883.993L13 5h1c0-.06-.002-.118-.005-.176l-.016-.182a3 3 0 0 0-.01-.074l.01.074a2.994 2.994 0 0 0-.032-.204l.022.13a2.988 2.988 0 0 0-.038-.212l.016.082a2.982 2.982 0 0 0-.034-.159l.018.077a2.978 2.978 0 0 0-.046-.18l.028.103a2.977 2.977 0 0 0-.058-.202l.03.099a2.976 2.976 0 0 0-.047-.151l.017.052a2.983 2.983 0 0 0-.285-.626l.046.08a3 3 0 0 0-.101-.168l.055.088a3.003 3.003 0 0 0-.084-.13l.029.042a3.008 3.008 0 0 0-.105-.15l.076.107a3.01 3.01 0 0 0-.126-.172l.05.065a3.014 3.014 0 0 0-.11-.14l.06.075a3.015 3.015 0 0 0-.105-.126l.044.05a3.018 3.018 0 0 0-.507-.478l.078.06a3.011 3.011 0 0 0-.143-.108l.065.048a3.008 3.008 0 0 0-.144-.101l.079.053-.15-.099.07.046a3 3 0 0 0-.144-.09l.073.044a2.997 2.997 0 0 0-.168-.097l.095.053c-.05-.029-.1-.056-.152-.082l.057.03a2.988 2.988 0 0 0-.175-.087l.118.057a2.985 2.985 0 0 0-.171-.08l-.168-.066L12 2.17z" id="nsynmzjpda"/>
    </defs>
    <g transform="translate(4 2)" fill="none" fill-rule="evenodd">
        <mask id="e4db0y6f5b" fill="#fff">
            <use xlink:href="#nsynmzjpda"/>
        </mask>
        <use fill="#131B74" fill-rule="nonzero" xlink:href="#nsynmzjpda"/>
        <g mask="url(#e4db0y6f5b)" fill="#FFF">
            <path d="M-4-2h24v24H-4z"/>
        </g>
    </g>
</svg>
