<svg width="24" height="24" viewBox="0 0 24 24" xmlns="http://www.w3.org/2000/svg" xmlns:xlink="http://www.w3.org/1999/xlink">
    <defs>
        <path d="M19 0a3 3 0 0 1 3 3v11a3 3 0 0 1-3 3H3a3 3 0 0 1-3-3V3a3 3 0 0 1 3-3zm1 7H2v7a1 1 0 0 0 .883.993L3 15h16a1 1 0 0 0 1-1V7zM9 11a1 1 0 0 1 .117 1.993L9 13H5a1 1 0 0 1-.117-1.993L5 11h4zm10-9H3a1 1 0 0 0-1 1v2h18V3a1 1 0 0 0-.883-.993L19 2z" id="rpvd54l15a"/>
    </defs>
    <g transform="translate(1 4)" fill="none" fill-rule="evenodd">
        <mask id="ocmv3utkpb" fill="#fff">
            <use xlink:href="#rpvd54l15a"/>
        </mask>
        <use fill="#131B74" fill-rule="nonzero" xlink:href="#rpvd54l15a"/>
        <g mask="url(#ocmv3utkpb)" fill="#FFF">
            <path d="M-1-4h24v24H-1z"/>
        </g>
    </g>
</svg>
