<svg width="24" height="24" viewBox="0 0 24 24" xmlns="http://www.w3.org/2000/svg" xmlns:xlink="http://www.w3.org/1999/xlink">
    <defs>
        <path d="M4.482 1.867c1.95-2.483 6.867-2.483 8.983-.036a1 1 0 0 1 .136 1.105l-.475.948-.441.897-.407.846C15.631 7.05 18 10.665 18 14.372 18 18.153 14.834 20 9.064 20 3.208 20-.001 18.158 0 14.318c.22-4.137 2.342-7.337 5.707-8.658l-.229-.477-1.106-2.254a1 1 0 0 1 .11-1.062zm4.724 5.138-.227.005c-4.099.166-6.747 3.077-6.977 7.362 0 2.383 2.166 3.626 7.062 3.626 4.81 0 6.933-1.238 6.933-3.626 0-3.8-3.219-7.516-7.018-7.362zM11.213 9.5c.38 0 .692.266.692.59 0 .326-.312.592-.692.598h-.879c.083.13.153.271.208.413h.67c.381 0 .693.266.693.59 0 .326-.312.592-.692.592h-.671c-.104.378-.332.72-.664.992-.007 0-.007.012-.007.012a2.75 2.75 0 0 1-1.411.62l1.957 1.578c.27.218.284.59.028.827a.775.775 0 0 1-.975.03l-3.19-2.57a.552.552 0 0 1-.214-.432c0-.325.312-.59.692-.59h1.273c.325-.006.636-.119.865-.314a.857.857 0 0 0 .145-.16H6.758c-.38 0-.692-.265-.692-.59 0-.325.312-.59.692-.59h2.276a1.382 1.382 0 0 0-1.003-.414H6.758c-.38 0-.692-.266-.692-.591 0-.325.312-.591.692-.591zm.134-6.87c-1.321-.832-3.498-.835-4.737-.024l-.122.085.582 1.186.544 1.127h2.743l.313-.657.432-.888.368-.746z" id="gld4rkgu2a"/>
    </defs>
    <g fill="none" fill-rule="evenodd">
        <path d="M0 0h24v24H0z"/>
        <g transform="translate(3 2)">
            <mask id="enbi3j3bqb" fill="#fff">
                <use xlink:href="#gld4rkgu2a"/>
            </mask>
            <use fill="#131B74" fill-rule="nonzero" xlink:href="#gld4rkgu2a"/>
            <g mask="url(#enbi3j3bqb)" fill="#FFF">
                <path d="M-3-2h24v24H-3z"/>
            </g>
        </g>
    </g>
</svg>
