<svg width="24" height="24" viewBox="0 0 24 24" xmlns="http://www.w3.org/2000/svg" xmlns:xlink="http://www.w3.org/1999/xlink">
    <defs>
        <path d="M12 2c-.446 0-.876.16-1.205.457l-9.242 8.317a1.636 1.636 0 0 0 0 2.452l.125.102c.258.192.565.31.888.344l.151.008.709.001v6.317c0 1.13.97 2.002 2.114 2.002h4.18a1 1 0 0 0 1-1l-.001-4.209.09-.012.143-.01.302-.007.272.002.483.006.771-.007.232.004.091.005.177.019V21a1 1 0 0 0 1 1h4.18l.154-.005c1.076-.075 1.96-.919 1.96-1.997l-.001-6.316h.67c.445 0 .875-.16 1.204-.456a1.636 1.636 0 0 0 .004-2.448l-9.246-8.321A1.797 1.797 0 0 0 12 2zM12 4.062l8.467 7.62h-.229c-.897 0-1.664.69-1.664 1.598v6.718l-.006-.01-.054.008a.366.366 0 0 1-.053.004h-3.181v-3.201c0-.915-.44-1.584-1.231-1.867a2.645 2.645 0 0 0-.757-.155l-.276-.013-.331-.002-.685.008-.682-.008-.332.002-.275.013c-.296.02-.51.067-.758.155l-.153.062c-.695.311-1.079.95-1.079 1.805V20H5.54l-.053-.004-.054-.008c-.004 0-.006.004-.006.01V13.28l-.007-.141c-.074-.837-.807-1.456-1.657-1.456l-.231-.001 8.467-7.62z" id="dvlatk3yka"/>
    </defs>
    <g fill="none" fill-rule="evenodd">
        <mask id="zt47h9qqfb" fill="#fff">
            <use xlink:href="#dvlatk3yka"/>
        </mask>
        <use fill="#131B74" fill-rule="nonzero" xlink:href="#dvlatk3yka"/>
        <g mask="url(#zt47h9qqfb)" fill="#FFF">
            <path d="M0 0h24v24H0z"/>
        </g>
    </g>
</svg>
