<svg width="24" height="24" viewBox="0 0 24 24" xmlns="http://www.w3.org/2000/svg" xmlns:xlink="http://www.w3.org/1999/xlink">
    <defs>
        <path d="m6.733 8.203.153.085 1.857 1.13h2.163c1.463 0 2.687 1.035 2.998 2.422l1.657-.838c2.117-.858 3.737-.585 4.298 1.122.5 1.518-.347 2.886-2.236 4.094l-.215.133-4.477 2.522-.091.045-1.551.674a4.915 4.915 0 0 1-4.41-.246l-.221-.135-3.455-2.229H.995c-.55 0-.995-.451-.995-1.008 0-.518.384-.944.88-1.002l.115-.007h2.208c.315 0 .625.076.905.22l.163.095 3.455 2.23a2.95 2.95 0 0 0 2.596.3l.183-.072 1.503-.654 4.405-2.48c1.238-.752 1.66-1.334 1.577-1.77l-.019-.072c-.096-.293-.432-.365-1.415.009l-.18.07-4.556 2.309c-.345.175-.72.28-1.104.31l-.23.01H8.467c-.55 0-.995-.452-.995-1.01 0-.517.384-.943.879-1.001l.116-.007h2.017c.116 0 .23-.02.34-.06l.105-.047 1.029-.521.01-.074a1.094 1.094 0 0 0-.945-1.309l-.118-.006H8.743c-.3 0-.596-.07-.865-.201l-.159-.087-1.857-1.13-4.549 1.555a.992.992 0 0 1-1.26-.634A1.014 1.014 0 0 1 .57 9.704l.108-.044 4.549-1.554a1.965 1.965 0 0 1 1.506.097zM16.29 0c.391 0 .711.342.711.76 0 .417-.32.76-.71.767h-.904c.086.167.157.35.214.532h.69c.39 0 .71.341.71.76 0 .417-.32.759-.71.759h-.69a2.623 2.623 0 0 1-.683 1.276c-.007 0-.007.015-.007.015a2.593 2.593 0 0 1-1.45.798l2.012 2.028a.8.8 0 0 1 .028 1.063.677.677 0 0 1-1.002.038L11.22 5.492a.784.784 0 0 1-.22-.555c0-.417.32-.76.71-.76h1.309c.334-.007.654-.151.889-.402.056-.06.106-.129.149-.205H11.71c-.391 0-.711-.342-.711-.76 0-.417.32-.76.71-.76h2.34a1.295 1.295 0 0 0-1.031-.53h-1.308c-.391 0-.711-.343-.711-.76 0-.418.32-.76.71-.76z" id="j75s1ou87a"/>
    </defs>
    <g fill="none" fill-rule="evenodd">
        <path d="M0 0h24v24H0z"/>
        <g transform="translate(2 2)">
            <mask id="ys86h2baqb" fill="#fff">
                <use xlink:href="#j75s1ou87a"/>
            </mask>
            <use fill="#131B74" fill-rule="nonzero" xlink:href="#j75s1ou87a"/>
            <g mask="url(#ys86h2baqb)" fill="#FFF">
                <path d="M-2-2h24v24H-2z"/>
            </g>
        </g>
    </g>
</svg>
