<svg width="24" height="24" viewBox="0 0 24 24" xmlns="http://www.w3.org/2000/svg" xmlns:xlink="http://www.w3.org/1999/xlink">
    <defs>
        <path d="M9.996 6.998a7 7 0 0 1 7.002 6.995h.042l.12.005a3.41 3.41 0 0 1 1.29.35c.951.478 1.55 1.38 1.55 2.648 0 1.269-.599 2.17-1.55 2.647a3.314 3.314 0 0 1-1.295.353l-.153.004v-2c.108 0 .34-.038.55-.144.297-.149.447-.375.447-.86s-.15-.711-.447-.86a1.439 1.439 0 0 0-.403-.127l-.07-.01-.088-.008-.282.001a6.968 6.968 0 0 1-.966 2.003h1.255v2H6.39l-.003-.001h-3.39V20l-.152-.004a3.314 3.314 0 0 1-1.295-.353C.6 19.166 0 18.265 0 16.996s.599-2.17 1.55-2.647a3.41 3.41 0 0 1 .97-.312l.166-.024.154-.015.12-.005.034-.001.005-.237a7 7 0 0 1 6.997-6.757zM3.01 15.991l-.158.018a1.439 1.439 0 0 0-.403.127c-.297.149-.447.375-.447.86s.15.711.447.86c.21.106.442.145.55.145L2.994 18v-.005H4.25a6.968 6.968 0 0 1-.966-2.003h-.275zm6.987-6.994a5 5 0 0 0-3.153 8.879l.152.118h6.001l.154-.118a4.988 4.988 0 0 0 1.842-3.64l.006-.24a5 5 0 0 0-5.002-4.999zm1.145 3c.196 0 .356.17.356.38 0 .208-.16.379-.356.383h-.451c.042.083.078.174.106.265h.345c.196 0 .356.171.356.38s-.16.38-.356.38h-.345c-.053.243-.17.463-.34.638-.004 0-.004.007-.004.007-.196.213-.452.35-.726.399l1.006 1.014a.4.4 0 0 1 .015.531.339.339 0 0 1-.502.02l-1.639-1.652a.392.392 0 0 1-.11-.278c0-.208.16-.38.356-.38h.654a.63.63 0 0 0 .519-.303H8.852c-.196 0-.356-.17-.356-.38 0-.208.16-.38.356-.38h1.17a.648.648 0 0 0-.516-.265h-.654c-.196 0-.356-.171-.356-.38s.16-.38.356-.38zM10.497 1a1 1 0 0 1 .993.883l.007.116v3a1 1 0 0 1-1.994.116L9.496 5v-3a1 1 0 0 1 1-1zm3-1a1 1 0 0 1 .994.883l.007.117v2.999a1 1 0 0 1-1.994.116L12.497 4v-3a1 1 0 0 1 1-.999zM7.496 0a1 1 0 0 1 .993.883L8.496 1v2.999a1 1 0 0 1-1.994.116L6.496 4v-3a1 1 0 0 1 1-.999z" id="uga215xwla"/>
    </defs>
    <g fill="none" fill-rule="evenodd">
        <path d="M0 0h24v24H0z"/>
        <g transform="translate(2 2)">
            <mask id="i4kittnkhb" fill="#fff">
                <use xlink:href="#uga215xwla"/>
            </mask>
            <use fill="#131B74" fill-rule="nonzero" xlink:href="#uga215xwla"/>
            <g mask="url(#i4kittnkhb)" fill="#FFF">
                <path d="M-2-2h24v24H-2z"/>
            </g>
        </g>
    </g>
</svg>
